<svg width="1075" height="585" viewBox="0 0 1075 585" fill="none" xmlns="http://www.w3.org/2000/svg">
<path d="M321.311 433.517H285.777V328.877C285.777 323.32 283.569 317.989 279.639 314.059C275.709 310.129 270.379 307.922 264.821 307.922H256.495C253.743 307.922 251.018 308.464 248.475 309.517C245.933 310.57 243.623 312.113 241.677 314.059C239.731 316.005 238.187 318.315 237.134 320.858C236.081 323.4 235.539 326.125 235.539 328.877V433.517H135.309C133.247 433.517 131.22 432.984 129.425 431.97C127.629 430.955 126.127 429.494 125.062 427.728C123.998 425.962 123.408 423.951 123.35 421.89C123.292 419.829 123.768 417.788 124.731 415.965L230.814 215.184C232.136 212.681 232.938 209.936 233.17 207.114C233.402 204.293 233.061 201.453 232.165 198.768C231.27 196.082 229.84 193.605 227.961 191.487C226.082 189.37 223.793 187.654 221.233 186.445L214.971 183.488C210.108 181.192 204.549 180.853 199.444 182.541C194.338 184.23 190.077 187.816 187.542 192.558L58.1602 434.591C55.957 438.712 54.8043 443.314 54.8043 447.987V447.987C54.8043 451.719 55.5393 455.414 56.9673 458.861C58.3954 462.309 60.4885 465.441 63.1271 468.08C65.7658 470.719 68.8983 472.812 72.3459 474.24C75.7935 475.668 79.4885 476.403 83.2202 476.403H235.539V542.57C235.539 545.869 236.189 549.135 237.451 552.183C238.713 555.23 240.564 557.999 242.896 560.332C245.229 562.664 247.998 564.515 251.045 565.777C254.093 567.039 257.359 567.689 260.658 567.689H260.658C263.957 567.689 267.223 567.039 270.271 565.777C273.318 564.515 276.087 562.664 278.42 560.332C280.752 557.999 282.603 555.23 283.865 552.183C285.127 549.135 285.777 545.869 285.777 542.57V476.403H321.311C326.998 476.403 332.452 474.144 336.474 470.122C340.495 466.101 342.754 460.647 342.754 454.96V454.96C342.754 449.273 340.495 443.819 336.474 439.797C332.453 435.776 326.998 433.517 321.311 433.517V433.517Z" fill="#069801"/>
<path d="M979.308 433.517H943.774V328.877C943.774 323.32 941.566 317.989 937.636 314.059C933.706 310.129 928.376 307.922 922.818 307.922H914.491C911.739 307.922 909.014 308.464 906.472 309.517C903.929 310.57 901.619 312.113 899.673 314.059C897.727 316.005 896.184 318.315 895.131 320.858C894.077 323.4 893.535 326.125 893.535 328.877V433.517H793.305C791.243 433.517 789.216 432.984 787.421 431.97C785.626 430.955 784.123 429.494 783.059 427.728C781.995 425.962 781.405 423.951 781.347 421.89C781.289 419.829 781.764 417.788 782.728 415.965L888.81 215.184C890.133 212.681 890.934 209.936 891.167 207.114C891.399 204.293 891.057 201.453 890.162 198.768C889.266 196.082 887.836 193.605 885.957 191.487C884.078 189.37 881.79 187.654 879.23 186.445L872.967 183.488C868.105 181.192 862.546 180.853 857.44 182.541C852.334 184.23 848.073 187.816 845.538 192.558L716.157 434.591C713.953 438.712 712.801 443.314 712.801 447.987V447.987C712.801 455.523 715.795 462.751 721.124 468.08C726.453 473.409 733.68 476.403 741.217 476.403H893.535V542.57C893.535 549.232 896.182 555.621 900.893 560.332C905.603 565.043 911.992 567.689 918.654 567.689V567.689C925.316 567.689 931.706 565.043 936.416 560.332C941.127 555.621 943.773 549.232 943.773 542.57V476.403H979.308C984.995 476.403 990.449 474.144 994.47 470.122C998.492 466.101 1000.75 460.647 1000.75 454.96V454.96C1000.75 449.273 998.492 443.819 994.47 439.797C990.449 435.776 984.995 433.517 979.308 433.517Z" fill="#069801"/>
<path d="M950 181C952.761 181 955 178.761 955 176C955 173.239 952.761 171 950 171C947.239 171 945 173.239 945 176C945 178.761 947.239 181 950 181Z" fill="white"/>
<path d="M535.651 200C449.707 200 388 255.139 388 383.798C388 529.611 449.707 568.208 535.651 568.208C621.595 568.208 686.978 525.935 686.978 383.798C686.978 231.858 621.595 200 535.651 200ZM536.216 519.808C476.689 519.808 445.59 484.886 445.59 383.892C445.59 294.78 477.962 247.787 537.489 247.787C597.016 247.787 629.388 278.655 629.388 383.892C629.388 482.339 595.743 519.808 536.216 519.808Z" fill="#069801"/>
<path d="M470.361 82.1516C477.486 82.1516 483.262 76.3756 483.262 69.2505C483.262 62.1253 477.486 56.3493 470.361 56.3493C463.235 56.3493 457.459 62.1253 457.459 69.2505C457.459 76.3756 463.235 82.1516 470.361 82.1516Z" fill="#2F2E41"/>
<path d="M501.827 144.77C521.812 144.77 538.013 123.779 538.013 97.8848C538.013 71.991 521.812 51 501.827 51C481.842 51 465.641 71.991 465.641 97.8848C465.641 123.779 481.842 144.77 501.827 144.77Z" fill="#2F2E41"/>
<path opacity="0.1" d="M501.827 130.61C483.699 130.61 468.686 113.339 466.051 90.8048C465.777 93.1548 465.64 95.5188 465.641 97.8848C465.641 123.778 481.842 144.77 501.827 144.77C521.812 144.77 538.013 123.779 538.013 97.8848C538.014 95.5188 537.877 93.1548 537.603 90.8048C534.968 113.339 519.955 130.61 501.827 130.61Z" fill="black"/>
<path d="M575.462 235.189C574.685 238.382 571.334 240.94 567.623 242.727C559.821 246.483 550.198 247.605 540.863 247.981C538.482 248.126 536.093 248.081 533.719 247.849C529.118 247.404 524.802 245.42 521.468 242.217C521.23 242.062 521.035 241.849 520.902 241.599C520.769 241.348 520.701 241.067 520.705 240.783C520.71 240.499 520.786 240.221 520.927 239.975C521.068 239.728 521.269 239.521 521.512 239.374C526.481 233.915 534.774 230.567 543.128 228.157C549.462 226.33 560.509 221.597 567.418 222.235C574.11 222.854 576.443 231.157 575.462 235.189Z" fill="#3F3D56"/>
<path opacity="0.1" d="M575.462 235.189C574.685 238.382 571.334 240.94 567.623 242.727C559.821 246.483 550.198 247.605 540.863 247.981C538.482 248.126 536.093 248.081 533.719 247.849C529.118 247.404 524.802 245.42 521.468 242.217C521.23 242.062 521.035 241.849 520.902 241.599C520.769 241.348 520.701 241.067 520.705 240.783C520.71 240.499 520.786 240.221 520.927 239.975C521.068 239.728 521.269 239.521 521.512 239.374C526.481 233.915 534.774 230.567 543.128 228.157C549.462 226.33 560.509 221.597 567.418 222.235C574.11 222.854 576.443 231.157 575.462 235.189Z" fill="black"/>
<path d="M476.263 211.321C473.882 215.989 473.451 221.411 475.065 226.396C476.706 231.344 479.779 235.693 483.894 238.893C493.989 246.985 507.882 248.098 520.819 247.986C532.157 247.887 543.479 247.111 554.724 245.662C558.492 245.328 562.195 244.468 565.725 243.108C569.948 241.281 573.658 237.93 575.161 233.582C576.665 229.234 575.598 223.909 572.027 221.008C568.891 218.458 564.565 218.107 560.53 217.865L537.442 216.477C539.723 214.169 542.76 212.863 545.538 211.185C549.223 208.959 551.672 205.22 554.351 201.85C558.48 196.916 562.972 192.297 567.79 188.033C568.541 192.344 571.268 195.883 574.477 198.857C577.686 201.831 581.385 204.226 584.721 207.057C592.8 213.916 598.617 223.224 607.113 229.558C612.958 228.022 618.422 225.294 623.162 221.546L619.86 215.564C619.584 214.949 619.156 214.414 618.615 214.011C617.68 213.436 616.475 213.733 615.39 213.57C612.489 213.135 611.222 209.786 610.084 207.083C606.959 199.661 600.976 193.903 595.866 187.679C592.095 183.084 588.749 178.157 585.87 172.956C584.154 169.854 582.582 166.625 580.253 163.953C577.923 161.281 574.659 159.18 571.114 159.172C567.982 159.166 565.093 160.756 562.4 162.355C554.198 167.227 546.306 172.604 538.77 178.454C534.826 181.516 530.907 184.751 526.281 186.628C524.333 187.419 522.28 187.959 520.411 188.92C517.138 190.605 514.654 193.455 511.98 195.985C502.443 205.008 489.384 210.854 476.263 211.321Z" fill="#3F3D56"/>
<path d="M524.539 147.098C524.432 149.856 523.845 152.575 522.805 155.131C522.278 156.407 521.494 157.56 520.502 158.518C519.51 159.477 518.33 160.221 517.038 160.704C515.202 161.196 513.278 161.258 511.415 160.887C509.79 160.717 508.224 160.183 506.833 159.326C504.668 157.837 503.589 155.182 503.196 152.583C502.802 149.987 502.978 147.334 502.727 144.719C502.482 142.607 502.08 140.516 501.525 138.464C501.355 137.781 501.182 137.101 501.012 136.422C500.845 135.742 500.681 135.062 500.53 134.383C500.392 133.744 500.263 133.102 500.153 132.457C500.062 131.912 499.98 131.365 499.92 130.814C499.865 129.182 499.593 127.564 499.111 126.003C498.659 124.991 498.093 124.033 497.425 123.149C497.138 122.74 496.861 122.331 496.607 121.906C495.869 120.802 495.527 119.482 495.634 118.158C495.665 117.954 495.714 117.753 495.782 117.557C495.807 117.482 495.836 117.406 495.867 117.334C496.15 117.257 496.41 117.112 496.625 116.912C496.839 116.712 497.001 116.463 497.097 116.185C497.206 115.59 497.155 114.977 496.95 114.408C496.714 113.612 496.393 112.845 495.99 112.12C495.726 111.642 494.829 110.78 494.822 110.232C494.81 109.131 496.962 108.243 497.834 107.809C500.494 106.477 503.461 105.875 506.43 106.066C508.334 106.195 510.398 106.78 511.449 108.376C512.393 109.814 512.267 111.676 512.67 113.347C512.713 113.59 512.815 113.818 512.969 114.011C513.174 114.198 513.433 114.317 513.709 114.351C514.175 114.444 514.652 114.463 515.125 114.408H515.128C515.252 114.398 515.376 114.38 515.499 114.354C516.234 114.218 516.929 113.918 517.532 113.476C517.922 113.372 518.315 113.287 518.712 113.221C518.728 113.22 518.744 113.217 518.759 113.212C520.335 118.187 520.54 123.52 521.83 128.586C522.469 131.107 523.384 133.596 523.513 136.189C523.523 136.302 523.526 136.418 523.529 136.535C523.548 137.369 523.482 138.209 523.517 139.039C523.529 139.413 523.571 139.786 523.642 140.153C523.784 140.744 523.959 141.326 524.168 141.897L524.177 141.925C524.237 142.107 524.294 142.293 524.341 142.479C524.376 142.614 524.407 142.746 524.432 142.881L524.435 142.891C524.668 144.281 524.703 145.698 524.539 147.098V147.098Z" fill="#FBBEBE"/>
<path d="M502.456 114.562C512.709 114.562 521.021 106.25 521.021 95.9968C521.021 85.7436 512.709 77.4317 502.456 77.4317C492.203 77.4317 483.891 85.7436 483.891 95.9968C483.891 106.25 492.203 114.562 502.456 114.562Z" fill="#FBBEBE"/>
<path d="M620.323 197.148C619.784 192.083 617.984 187.234 615.087 183.045C615.568 185.909 616.051 188.771 616.534 191.632C615.933 191.806 615.294 191.801 614.696 191.617C614.098 191.433 613.567 191.079 613.167 190.597C612.385 189.621 611.787 188.511 611.402 187.321C609.293 182.085 606.535 177.135 603.192 172.586C591.374 171.601 579.69 166.702 569.297 160.99C558.9 155.282 549.171 148.438 538.913 142.488C537.135 141.413 535.282 140.467 533.369 139.656C530.159 138.369 526.556 137.702 523.513 136.189C523.309 136.088 523.104 135.981 522.903 135.871C522.216 135.497 521.565 135.06 520.958 134.565C520.631 134.299 520.32 134.013 520.027 133.709C518.509 131.943 517.305 129.929 516.468 127.756C514.835 124.143 514.253 119.785 512.623 116.173C513.372 115.473 514.214 114.879 515.125 114.408H515.128C515.26 114.338 515.392 114.272 515.527 114.209C516.172 113.906 516.843 113.66 517.532 113.476C517.922 113.372 518.315 113.287 518.712 113.221C518.728 113.22 518.744 113.217 518.759 113.212C520.597 112.912 522.481 113.061 524.25 113.646C526.836 114.521 529.017 116.267 531.191 117.919C534.724 120.408 538.112 123.095 541.339 125.968C543.133 127.686 544.769 129.574 546.698 131.135C548.301 132.372 549.991 133.492 551.754 134.486C562.192 140.704 572.63 146.921 583.07 153.136C586.603 155.241 590.14 157.347 593.595 159.574C598.844 162.96 603.903 166.629 608.96 170.295C611.94 172.454 614.919 174.613 617.897 176.774C618.874 177.397 619.731 178.19 620.43 179.115C621.046 180.165 621.43 181.336 621.553 182.548C622.3 187.444 621.879 192.447 620.323 197.148V197.148Z" fill="#FBBEBE"/>
<path d="M529.143 161.06C527.89 166.676 522.214 170.072 519.247 175.005C515.559 181.129 517.063 188.246 518.447 195.26C515.917 197.441 513.387 199.622 510.855 201.802C509.457 203.001 508.06 204.206 506.556 205.267C504.363 206.736 502.071 208.052 499.697 209.206C497.456 210.358 495.216 211.511 492.975 212.664C490.893 213.835 488.686 214.77 486.396 215.452C481.981 216.585 477.293 215.792 472.925 214.48C472.41 214.345 471.915 214.143 471.452 213.879C471.18 213.716 470.943 213.501 470.754 213.246C470.323 212.474 470.167 211.579 470.31 210.707C470.754 203.357 472.551 196.16 474.341 189.017C475.298 184.732 476.585 180.527 478.189 176.44C479.763 172.938 481.573 169.547 483.605 166.289C485.848 162.191 488.505 158.333 491.534 154.776C493.009 153.407 494.251 151.806 495.21 150.037C496.327 147.488 495.896 144.565 496.122 141.79C496.295 139.704 496.849 137.669 497.755 135.783V135.78C498.24 134.764 498.824 133.798 499.498 132.897C499.804 133.608 500.109 134.318 500.414 135.028C500.615 135.493 500.815 135.958 501.012 136.422C501.27 137.019 501.526 137.615 501.78 138.209C502.513 139.914 503.245 141.619 503.976 143.322C504.766 145.468 505.892 147.474 507.311 149.266C507.96 150.184 508.836 150.918 509.853 151.396C510.871 151.874 511.994 152.08 513.115 151.994C514.236 151.908 515.315 151.533 516.247 150.906C517.18 150.278 517.933 149.419 518.435 148.413C519.492 146.536 520.258 144.508 520.707 142.4C521.328 139.833 521.414 137.166 520.958 134.565C520.2 129.556 518.07 124.439 516.522 119.785C515.891 118.234 515.527 116.587 515.442 114.914C515.446 114.726 515.464 114.539 515.499 114.354C515.508 114.307 515.518 114.257 515.527 114.209C516.172 113.906 516.843 113.66 517.532 113.476C517.922 113.372 518.315 113.288 518.712 113.221C520.074 120.597 521.439 127.973 522.805 135.349C522.837 135.522 522.872 135.695 522.903 135.871C523.098 136.928 523.296 137.985 523.517 139.04C523.715 139.996 523.929 140.95 524.168 141.897L524.177 141.925C524.259 142.246 524.344 142.564 524.432 142.882L524.435 142.891C524.678 143.759 524.948 144.622 525.254 145.471C527.104 150.591 530.329 155.745 529.143 161.06Z" fill="#069801"/>
<path d="M604.487 239.993C604.428 241.075 604.638 242.154 605.097 243.136C606.259 245.259 609.047 245.742 611.459 245.941C625.551 247.099 639.729 246.667 653.725 244.653C654.484 244.601 655.221 244.372 655.876 243.985C657.866 242.59 656.64 239.19 654.467 238.102C652.294 237.013 649.715 237.276 647.331 236.804C644.963 236.208 642.707 235.23 640.654 233.908C635.819 231.13 631.054 228.234 626.36 225.22C623.566 223.425 620.268 221.51 617.121 222.574C608.595 225.458 604.431 230.796 604.487 239.993Z" fill="#3F3D56"/>
<path d="M500.603 133.989V133.992C500.581 134.124 500.559 134.253 500.53 134.383C500.496 134.597 500.455 134.814 500.414 135.028C500.024 137.026 499.546 139.014 498.995 140.99C497.485 146.45 495.461 151.821 493.454 157.114C488.067 171.305 482.679 185.497 477.289 199.691C475.93 203.265 474.574 206.843 473.029 210.345C472.513 211.513 471.981 212.689 471.452 213.879C469.558 218.136 467.739 222.532 467.135 227.063C466.572 230.045 466.507 233.1 466.943 236.103C467.547 239.074 469.351 241.975 472.173 243.073C473.551 243.611 475.524 244.332 475.147 245.764C474.942 246.55 474.048 246.934 473.246 247.066C472.186 247.235 471.103 247.169 470.072 246.872C469.041 246.575 468.087 246.055 467.28 245.348C465.773 244.011 464.615 241.931 462.61 241.708C461.223 241.557 459.945 242.387 458.674 242.969C453.488 245.339 447.447 243.681 442 241.997C442.428 239.791 444.643 238.338 446.843 237.897C449.042 237.453 451.317 237.768 453.561 237.708C454.279 237.747 454.992 237.563 455.603 237.183C456.15 236.68 456.534 236.025 456.704 235.301C458.149 231.019 459.224 226.621 459.917 222.155C460.641 217.488 460.943 212.749 461.975 208.139C462.777 204.543 464.017 201.06 465.08 197.529C467.137 190.26 468.826 182.892 470.14 175.452C470.805 172.362 471.281 169.233 471.566 166.085C471.745 163.473 471.66 160.849 471.912 158.246C472.334 154.861 473.041 151.517 474.023 148.25C474.986 144.685 475.948 141.122 476.909 137.561C478.334 132.29 479.863 126.815 483.476 122.718C484.73 121.276 486.268 120.106 487.993 119.283C489.718 118.459 491.594 117.998 493.504 117.929C494.22 117.928 494.935 118.005 495.634 118.158C495.751 118.187 495.867 118.215 495.983 118.247C496.746 118.446 497.478 118.749 498.158 119.147C499.272 118.439 499.838 118.687 500.578 119.779C501.226 120.935 501.532 122.251 501.459 123.574C501.521 127.065 501.234 130.555 500.603 133.989Z" fill="#FBBEBE"/>
<path d="M501.827 138.162L501.78 138.209L501.525 138.464L498.995 140.99L497.755 135.783L493.504 117.929C494.22 117.928 494.935 118.005 495.634 118.158C495.665 117.954 495.714 117.753 495.782 117.557L495.984 118.247L497.425 123.149L500.153 132.457L500.603 133.989V133.992L501.827 138.162Z" fill="#6C63FF"/>
<path d="M517.881 81.2028C517.879 82.856 517.551 84.4926 516.916 86.019C516.281 87.5454 515.351 88.9317 514.18 90.0986C513.756 90.5234 513.302 90.9165 512.82 91.275C510.649 92.9119 508.004 93.7979 505.285 93.7991H490.189C486.853 93.794 483.655 92.4652 481.298 90.1047C478.942 87.7441 477.618 84.5447 477.618 81.2089C477.618 77.8732 478.942 74.6737 481.298 72.3132C483.655 69.9526 486.853 68.6239 490.189 68.6187H505.285C508.62 68.6274 511.817 69.9556 514.177 72.3134C516.537 74.6711 517.869 77.8668 517.881 81.2028V81.2028Z" fill="#2F2E41"/>
<path d="M532.034 82.1516C539.16 82.1516 544.936 76.3756 544.936 69.2505C544.936 62.1253 539.16 56.3493 532.034 56.3493C524.909 56.3493 519.133 62.1253 519.133 69.2505C519.133 76.3756 524.909 82.1516 532.034 82.1516Z" fill="#2F2E41"/>
<path opacity="0.1" d="M531.72 56.3493C531.562 56.3493 531.405 56.3556 531.248 56.3612C534.585 56.4825 537.745 57.8936 540.063 60.2976C542.382 62.7015 543.677 65.9109 543.677 69.2505C543.677 72.59 542.382 75.7994 540.063 78.2033C537.745 80.6073 534.585 82.0184 531.248 82.1397C531.405 82.1453 531.562 82.1516 531.72 82.1516C535.141 82.1516 538.423 80.7924 540.842 78.373C543.262 75.9535 544.621 72.6721 544.621 69.2505C544.621 65.8289 543.262 62.5474 540.842 60.1279C538.423 57.7085 535.141 56.3493 531.72 56.3493V56.3493Z" fill="black"/>
<path opacity="0.1" d="M470.361 56.3493C470.519 56.3493 470.676 56.3556 470.833 56.3612C467.495 56.4825 464.335 57.8936 462.017 60.2976C459.699 62.7015 458.403 65.9109 458.403 69.2505C458.403 72.59 459.699 75.7994 462.017 78.2033C464.335 80.6073 467.495 82.0184 470.833 82.1397C470.676 82.1453 470.519 82.1516 470.361 82.1516C466.941 82.1486 463.662 80.7881 461.245 78.3689C458.828 75.9498 457.471 72.6701 457.471 69.2505C457.471 65.8308 458.828 62.5511 461.245 60.132C463.662 57.7128 466.941 56.3523 470.361 56.3493Z" fill="black"/>
<path opacity="0.1" d="M512.82 91.275C510.649 92.9119 508.004 93.7979 505.285 93.7991H490.189C487.469 93.7978 484.824 92.9119 482.653 91.275H512.82Z" fill="black"/>
<path d="M610.305 184.756C610.305 184.756 613.557 194.128 616.534 191.632L614.161 179.382L610.305 184.756Z" fill="#FBBEBE"/>
</svg>
