<svg width="799" height="734" viewBox="0 0 799 734" fill="none" xmlns="http://www.w3.org/2000/svg">
<path d="M365.896 174.38H361.864V63.9272C361.864 55.5322 360.211 47.2193 356.998 39.4633C353.785 31.7073 349.077 24.66 343.14 18.7238C337.204 12.7876 330.157 8.07872 322.401 4.86609C314.645 1.65345 306.332 -5.67817e-05 297.937 -3.05173e-05H63.9274C55.5323 -5.67817e-05 47.2195 1.65345 39.4634 4.86609C31.7074 8.07872 24.6601 12.7876 18.7239 18.7238C12.7877 24.66 8.0788 31.7073 4.86615 39.4633C1.6535 47.2193 -1.31322e-05 55.5322 0 63.9273V669.881C-7.87929e-06 678.276 1.65351 686.589 4.86617 694.345C8.07882 702.101 12.7877 709.148 18.7239 715.084C24.6601 721.021 31.7074 725.729 39.4634 728.942C47.2195 732.155 55.5323 733.808 63.9274 733.808H297.937C306.332 733.808 314.645 732.155 322.401 728.942C330.157 725.729 337.204 721.021 343.14 715.084C349.077 709.148 353.785 702.101 356.998 694.345C360.211 686.589 361.864 678.276 361.864 669.881V253.003H365.896V174.38Z" fill="#E6E6E6"/>
<path d="M300.516 16.6317H269.97C271.375 20.0756 271.911 23.8122 271.532 27.5122C271.152 31.2122 269.869 34.762 267.794 37.8491C265.719 40.9361 262.917 43.4656 259.635 45.2147C256.352 46.9637 252.69 47.8787 248.971 47.879H114.91C111.19 47.8787 107.528 46.9637 104.245 45.2147C100.963 43.4656 98.1608 40.9361 96.0862 37.8491C94.0115 34.762 92.7279 31.2122 92.3484 27.5122C91.9689 23.8122 92.5051 20.0756 93.9098 16.6317H65.3798C59.1105 16.6316 52.9025 17.8665 47.1104 20.2656C41.3183 22.6648 36.0555 26.1813 31.6224 30.6144C27.1893 35.0474 23.6728 40.3103 21.2736 46.1024C18.8745 51.8945 17.6396 58.1024 17.6396 64.3717V669.436C17.6396 675.706 18.8745 681.914 21.2736 687.706C23.6728 693.498 27.1893 698.761 31.6224 703.194C36.0555 707.627 41.3183 711.143 47.1104 713.543C52.9025 715.942 59.1105 717.177 65.3798 717.177H300.516C306.786 717.177 312.994 715.942 318.786 713.543C324.578 711.143 329.841 707.627 334.274 703.194C338.707 698.761 342.223 693.498 344.623 687.706C347.022 681.914 348.256 675.706 348.256 669.436V64.3717C348.256 58.1024 347.022 51.8945 344.623 46.1024C342.223 40.3103 338.707 35.0474 334.274 30.6144C329.841 26.1813 324.578 22.6648 318.786 20.2656C312.994 17.8665 306.786 16.6316 300.516 16.6317V16.6317Z" fill="white"/>
<path d="M113.672 139.635H99.6331C99.1395 139.635 98.666 139.831 98.317 140.18C97.9679 140.529 97.7718 141.002 97.7718 141.496V147.658C97.7718 148.152 97.9679 148.625 98.317 148.974C98.666 149.324 99.1395 149.52 99.6331 149.52H101.96V158.753H111.346V149.52H113.672C114.166 149.52 114.639 149.324 114.989 148.974C115.338 148.625 115.534 148.152 115.534 147.658V141.496C115.534 141.002 115.338 140.529 114.989 140.18C114.639 139.831 114.166 139.635 113.672 139.635V139.635Z" fill="#E6E6E6"/>
<path d="M127.734 196.032C119.136 183.45 114.741 168.47 115.177 153.238C115.185 152.887 115.071 152.543 114.855 152.266C114.638 151.989 114.332 151.796 113.989 151.719V149.056H99.1619V151.682H98.9576C98.5541 151.683 98.1673 151.843 97.8823 152.129C97.5974 152.415 97.4376 152.802 97.4381 153.205C97.4382 153.242 97.4396 153.279 97.4423 153.316C98.6104 169.599 94.666 184.202 85.6089 197.124C85.0877 197.866 84.8215 198.758 84.8501 199.665L86.4714 249.816C86.5103 250.935 86.9798 251.995 87.7819 252.776C88.5839 253.556 89.6565 253.997 90.7757 254.006H124.313C125.445 253.997 126.529 253.546 127.333 252.75C128.138 251.953 128.599 250.874 128.62 249.742L129.245 201.049C129.263 199.262 128.736 197.512 127.734 196.032Z" fill="#E6E6E6"/>
<path d="M122.425 212.69H93.2337C92.8016 212.69 92.3746 212.784 91.982 212.964C91.5893 213.145 91.2404 213.408 90.959 213.736C90.6777 214.064 90.4705 214.449 90.3519 214.864C90.2332 215.28 90.2058 215.716 90.2715 216.143L94.6828 244.816H120.013L125.371 216.24C125.452 215.807 125.437 215.361 125.326 214.935C125.216 214.509 125.013 214.112 124.731 213.773C124.45 213.434 124.098 213.162 123.699 212.975C123.301 212.787 122.866 212.69 122.425 212.69V212.69Z" fill="white"/>
<path d="M269.957 289.869H255.917C255.424 289.869 254.95 290.065 254.601 290.414C254.252 290.764 254.056 291.237 254.056 291.731V297.893C254.056 298.387 254.252 298.86 254.601 299.209C254.95 299.558 255.424 299.754 255.917 299.754H258.244V308.987H267.63V299.754H269.957C270.45 299.754 270.924 299.558 271.273 299.209C271.622 298.86 271.818 298.387 271.818 297.893V291.731C271.818 291.237 271.622 290.763 271.273 290.414C270.924 290.065 270.45 289.869 269.957 289.869Z" fill="#E6E6E6"/>
<path d="M284.019 346.266C275.42 333.685 271.025 318.705 271.462 303.473C271.47 303.121 271.355 302.778 271.139 302.501C270.922 302.224 270.617 302.031 270.274 301.954V299.291H255.446V301.917H255.242C255.042 301.917 254.844 301.956 254.66 302.033C254.475 302.11 254.308 302.222 254.167 302.364C254.026 302.505 253.914 302.673 253.837 302.858C253.761 303.042 253.722 303.24 253.722 303.44C253.722 303.477 253.724 303.514 253.727 303.551C254.895 319.834 250.95 334.436 241.893 347.358C241.372 348.101 241.106 348.993 241.134 349.899L242.756 400.051C242.795 401.169 243.264 402.23 244.066 403.01C244.868 403.791 245.941 404.232 247.06 404.241H280.597C281.729 404.232 282.813 403.781 283.617 402.984C284.422 402.188 284.884 401.109 284.904 399.977L285.529 351.284C285.547 349.497 285.021 347.746 284.019 346.266V346.266Z" fill="#E6E6E6"/>
<path d="M278.71 362.925H249.518C249.086 362.925 248.659 363.018 248.266 363.199C247.874 363.379 247.525 363.643 247.243 363.97C246.962 364.298 246.755 364.683 246.636 365.099C246.518 365.514 246.49 365.951 246.556 366.378L250.967 395.051H276.297L281.655 366.474C281.736 366.041 281.721 365.596 281.611 365.17C281.5 364.743 281.297 364.347 281.016 364.008C280.735 363.669 280.382 363.396 279.983 363.209C279.585 363.022 279.15 362.925 278.71 362.925H278.71Z" fill="white"/>
<path d="M93.935 502.257H87.2755C87.0414 502.257 86.8168 502.35 86.6512 502.515C86.4856 502.681 86.3926 502.906 86.3926 503.14V506.063C86.3926 506.297 86.4856 506.521 86.6512 506.687C86.8168 506.853 87.0414 506.946 87.2755 506.946H88.3791V511.325H92.8314V506.946H93.935C94.1692 506.946 94.3937 506.853 94.5593 506.687C94.7249 506.521 94.8179 506.297 94.8179 506.063V503.14C94.8179 502.906 94.7249 502.681 94.5593 502.515C94.3937 502.35 94.1692 502.257 93.935 502.257Z" fill="#E6E6E6"/>
<path d="M100.605 529.008C96.5267 523.041 94.4417 515.935 94.6489 508.71C94.6526 508.543 94.5985 508.38 94.4958 508.249C94.393 508.117 94.248 508.026 94.0853 507.989V506.726H87.052V507.971H86.9551C86.8603 507.972 86.7665 507.99 86.679 508.027C86.5915 508.063 86.512 508.116 86.4451 508.183C86.3781 508.251 86.3251 508.33 86.2889 508.418C86.2528 508.505 86.2342 508.599 86.2343 508.694C86.2343 508.712 86.235 508.729 86.2363 508.747C86.8855 516.119 84.8964 523.483 80.6232 529.527C80.376 529.879 80.2497 530.302 80.2633 530.732L81.0323 554.521C81.0508 555.051 81.2735 555.554 81.6539 555.925C82.0344 556.295 82.5431 556.504 83.074 556.508H98.9823C99.5192 556.504 100.033 556.29 100.415 555.912C100.797 555.535 101.016 555.023 101.025 554.486L101.322 531.389C101.33 530.541 101.08 529.711 100.605 529.008V529.008Z" fill="#E6E6E6"/>
<path d="M98.3157 537.753H83.1366V545.343H98.3157V537.753Z" fill="white"/>
<path d="M124.935 502.257H118.276C118.041 502.257 117.817 502.35 117.651 502.515C117.486 502.681 117.393 502.906 117.393 503.14V506.063C117.393 506.297 117.486 506.521 117.651 506.687C117.817 506.853 118.041 506.946 118.276 506.946H119.379V511.325H123.831V506.946H124.935C125.169 506.946 125.394 506.853 125.559 506.687C125.725 506.521 125.818 506.297 125.818 506.063V503.14C125.818 502.906 125.725 502.681 125.559 502.515C125.394 502.35 125.169 502.257 124.935 502.257Z" fill="#E6E6E6"/>
<path d="M131.605 529.008C127.527 523.041 125.442 515.935 125.649 508.71C125.653 508.543 125.599 508.38 125.496 508.249C125.393 508.117 125.248 508.026 125.085 507.989V506.726H118.052V507.971H117.955C117.86 507.972 117.767 507.99 117.679 508.027C117.591 508.063 117.512 508.116 117.445 508.183C117.378 508.251 117.325 508.33 117.289 508.418C117.253 508.505 117.234 508.599 117.234 508.694C117.234 508.712 117.235 508.729 117.236 508.747C117.886 516.119 115.896 523.483 111.623 529.527C111.376 529.879 111.25 530.302 111.263 530.732L112.032 554.521C112.051 555.051 112.273 555.554 112.654 555.925C113.034 556.295 113.543 556.504 114.074 556.508H129.982C130.519 556.504 131.033 556.29 131.415 555.912C131.797 555.535 132.016 555.023 132.025 554.486L132.322 531.389C132.33 530.541 132.081 529.711 131.605 529.008Z" fill="#E6E6E6"/>
<path d="M129.316 537.753H114.137V545.343H129.316V537.753Z" fill="white"/>
<path d="M155.935 502.257H149.276C149.041 502.257 148.817 502.35 148.651 502.515C148.486 502.681 148.393 502.906 148.393 503.14V506.063C148.393 506.297 148.486 506.521 148.651 506.687C148.817 506.853 149.041 506.946 149.276 506.946H150.379V511.325H154.831V506.946H155.935C156.169 506.946 156.394 506.853 156.559 506.687C156.725 506.521 156.818 506.297 156.818 506.063V503.14C156.818 502.906 156.725 502.681 156.559 502.515C156.394 502.35 156.169 502.257 155.935 502.257Z" fill="#E6E6E6"/>
<path d="M162.605 529.008C158.527 523.041 156.442 515.935 156.649 508.71C156.653 508.543 156.599 508.38 156.496 508.249C156.393 508.117 156.248 508.026 156.085 507.989V506.726H149.052V507.971H148.955C148.86 507.972 148.767 507.99 148.679 508.027C148.591 508.063 148.512 508.116 148.445 508.183C148.378 508.251 148.325 508.33 148.289 508.418C148.253 508.505 148.234 508.599 148.234 508.694C148.234 508.712 148.235 508.729 148.236 508.747C148.886 516.119 146.896 523.483 142.623 529.527C142.376 529.879 142.25 530.302 142.263 530.732L143.032 554.521C143.051 555.051 143.273 555.554 143.654 555.925C144.034 556.295 144.543 556.504 145.074 556.508H160.982C161.519 556.504 162.033 556.29 162.415 555.912C162.797 555.535 163.016 555.023 163.025 554.486L163.322 531.389C163.33 530.541 163.081 529.711 162.605 529.008Z" fill="#E6E6E6"/>
<path d="M160.316 537.753H145.137V545.343H160.316V537.753Z" fill="white"/>
<path d="M245.567 444.137H231.528C231.284 444.137 231.042 444.185 230.816 444.279C230.59 444.372 230.385 444.509 230.212 444.682C230.039 444.855 229.902 445.06 229.808 445.286C229.715 445.512 229.667 445.754 229.667 445.998V452.161C229.667 452.654 229.863 453.128 230.212 453.477C230.561 453.826 231.034 454.022 231.528 454.022H233.855V463.255H243.241V454.022H245.567C246.061 454.022 246.534 453.826 246.883 453.477C247.232 453.128 247.429 452.654 247.429 452.161V445.998C247.429 445.754 247.38 445.512 247.287 445.286C247.193 445.06 247.056 444.855 246.883 444.682C246.711 444.509 246.505 444.372 246.28 444.279C246.054 444.185 245.812 444.137 245.567 444.137V444.137Z" fill="#E6E6E6"/>
<path d="M259.629 500.534C251.031 487.953 246.636 472.973 247.072 457.74C247.08 457.389 246.966 457.046 246.749 456.769C246.533 456.492 246.227 456.298 245.884 456.221V453.559H231.057V456.184H230.852C230.653 456.185 230.455 456.224 230.27 456.301C230.086 456.378 229.918 456.49 229.777 456.631C229.636 456.773 229.524 456.941 229.448 457.125C229.372 457.31 229.333 457.508 229.333 457.708C229.333 457.745 229.334 457.782 229.337 457.818C230.505 474.102 226.561 488.704 217.504 501.626C216.983 502.369 216.716 503.26 216.745 504.167L218.366 554.318C218.405 555.437 218.875 556.497 219.677 557.278C220.479 558.059 221.551 558.5 222.671 558.508H256.208C257.34 558.499 258.424 558.048 259.228 557.252C260.032 556.455 260.494 555.376 260.515 554.244L261.14 505.552C261.158 503.764 260.631 502.014 259.629 500.534Z" fill="#E6E6E6"/>
<path d="M254.32 517.193H225.129C224.696 517.193 224.269 517.286 223.877 517.466C223.484 517.647 223.135 517.91 222.854 518.238C222.573 518.566 222.365 518.951 222.247 519.367C222.128 519.782 222.101 520.218 222.166 520.645L226.578 549.319H251.908L257.266 520.742C257.347 520.309 257.332 519.864 257.221 519.437C257.111 519.011 256.908 518.615 256.626 518.276C256.345 517.937 255.993 517.664 255.594 517.477C255.195 517.29 254.76 517.193 254.32 517.193V517.193Z" fill="white"/>
<path d="M253.232 260.462H169.544C175.395 228.829 174.049 190.631 169.544 149.551H253.232C248.847 190.631 247.536 228.829 253.232 260.462Z" fill="#E6E6E6"/>
<path d="M211.892 222.148C223.029 222.148 232.058 213.119 232.058 201.982C232.058 190.845 223.029 181.816 211.892 181.816C200.755 181.816 191.726 190.845 191.726 201.982C191.726 213.119 200.755 222.148 211.892 222.148Z" fill="white"/>
<path d="M176.602 407.672H92.9143C98.7652 376.039 97.4191 337.84 92.9143 296.761H176.602C172.217 337.841 170.907 376.039 176.602 407.672Z" fill="#E6E6E6"/>
<path d="M135.262 369.357C146.4 369.357 155.428 360.329 155.428 349.192C155.428 338.054 146.4 329.026 135.262 329.026C124.125 329.026 115.097 338.054 115.097 349.192C115.097 360.329 124.125 369.357 135.262 369.357Z" fill="white"/>
<path d="M300.621 267.52H216.933C222.784 235.887 221.438 197.689 216.933 156.609H300.621C296.236 197.689 294.926 235.887 300.621 267.52Z" fill="#E6E6E6"/>
<path d="M259.281 229.206C270.419 229.206 279.447 220.177 279.447 209.04C279.447 197.903 270.419 188.874 259.281 188.874C248.144 188.874 239.116 197.903 239.116 209.04C239.116 220.177 248.144 229.206 259.281 229.206Z" fill="white"/>
<path d="M300.621 262.479H216.933C222.784 230.846 221.438 192.647 216.933 151.568H300.621C296.236 192.647 294.926 230.846 300.621 262.479Z" fill="#E6E6E6"/>
<path d="M259.281 224.164C270.419 224.164 279.447 215.136 279.447 203.998C279.447 192.861 270.419 183.833 259.281 183.833C248.144 183.833 239.116 192.861 239.116 203.998C239.116 215.136 248.144 224.164 259.281 224.164Z" fill="white"/>
<path d="M300.621 267.52H216.933C222.784 235.887 221.438 197.689 216.933 156.609H300.621C296.236 197.689 294.926 235.887 300.621 267.52Z" fill="#E6E6E6"/>
<path d="M259.281 229.206C270.419 229.206 279.447 220.177 279.447 209.04C279.447 197.903 270.419 188.874 259.281 188.874C248.144 188.874 239.116 197.903 239.116 209.04C239.116 220.177 248.144 229.206 259.281 229.206Z" fill="white"/>
<path d="M319.779 254.413H45.5249V284.661H319.779V254.413Z" fill="#E6E6E6"/>
<path d="M319.779 404.647H45.5249V434.896H319.779V404.647Z" fill="#E6E6E6"/>
<path d="M319.779 554.882H45.5249V585.13H319.779V554.882Z" fill="#E6E6E6"/>
<path d="M377.382 457.298H369.882C369.618 457.298 369.365 457.403 369.179 457.589C368.992 457.776 368.888 458.029 368.888 458.292V461.584C368.888 461.715 368.913 461.844 368.963 461.965C369.013 462.085 369.086 462.195 369.179 462.287C369.271 462.38 369.381 462.453 369.501 462.503C369.622 462.553 369.751 462.579 369.882 462.579H371.125V467.511H376.139V462.579H377.382C377.646 462.579 377.898 462.474 378.085 462.287C378.271 462.101 378.376 461.848 378.376 461.584V458.292C378.376 458.029 378.271 457.776 378.085 457.589C377.898 457.403 377.646 457.298 377.382 457.298V457.298Z" fill="#E6E6E6"/>
<path opacity="0.2" d="M375.818 458.371C375.818 458.94 375.592 459.485 375.19 459.888C374.788 460.29 374.242 460.516 373.673 460.516C373.104 460.516 372.559 460.29 372.156 459.888C371.754 459.485 371.528 458.94 371.528 458.371" fill="black"/>
<path d="M614.722 561.962H600.683C600.189 561.962 599.715 562.158 599.366 562.507C599.017 562.856 598.821 563.329 598.821 563.823V569.985C598.821 570.479 599.017 570.952 599.366 571.301C599.715 571.65 600.189 571.847 600.683 571.847H603.009V581.08H612.395V571.847H614.722C615.216 571.847 615.689 571.65 616.038 571.301C616.387 570.952 616.583 570.479 616.583 569.985V563.823C616.583 563.329 616.387 562.856 616.038 562.507C615.689 562.158 615.216 561.962 614.722 561.962V561.962Z" fill="#E6E6E6"/>
<path opacity="0.2" d="M611.795 563.97C611.795 565.035 611.372 566.056 610.619 566.809C609.866 567.562 608.844 567.985 607.779 567.985C606.714 567.985 605.693 567.562 604.94 566.809C604.187 566.056 603.764 565.035 603.764 563.97" fill="black"/>
<path d="M747.87 685.065H481.998L425.697 418.914H377.648V406.972H435.377L491.678 673.122H747.87V685.065Z" fill="#3F3D56"/>
<path d="M520.96 733.688C535.094 733.688 546.552 722.23 546.552 708.097C546.552 693.963 535.094 682.505 520.96 682.505C506.827 682.505 495.369 693.963 495.369 708.097C495.369 722.23 506.827 733.688 520.96 733.688Z" fill="#3F3D56"/>
<path d="M712.043 733.688C726.177 733.688 737.634 722.23 737.634 708.097C737.634 693.963 726.177 682.505 712.043 682.505C697.909 682.505 686.451 693.963 686.451 708.097C686.451 722.23 697.909 733.688 712.043 733.688Z" fill="#3F3D56"/>
<path d="M743.023 679.441H484.344L438.703 453.889H785.855C787.626 453.889 789.376 454.273 790.985 455.014C792.594 455.755 794.023 456.836 795.175 458.182C796.326 459.529 797.172 461.108 797.655 462.813C798.137 464.517 798.245 466.306 797.971 468.056L755.137 669.081C754.695 671.973 753.229 674.61 751.005 676.512C748.782 678.413 745.949 679.453 743.023 679.441V679.441ZM487.154 676.029H743.023C745.135 676.037 747.179 675.287 748.784 673.915C750.388 672.542 751.446 670.639 751.765 668.551L794.598 467.526C794.797 466.263 794.72 464.972 794.371 463.742C794.023 462.511 793.413 461.371 792.582 460.399C791.751 459.428 790.719 458.647 789.558 458.113C788.396 457.578 787.133 457.301 785.855 457.301H442.845L487.154 676.029Z" fill="#3F3D56"/>
<path d="M534.632 678.719L504.742 455.873L508.108 455.317L537.998 678.163L534.632 678.719Z" fill="#3F3D56"/>
<path d="M700.831 677.008L697.462 676.462L726.479 455.322L729.848 455.868L700.831 677.008Z" fill="#3F3D56"/>
<path d="M621.647 455.595H618.234V678.441H621.647V455.595Z" fill="#3F3D56"/>
<path d="M456.133 515.308L456.125 518.72L786.42 519.52L786.428 516.108L456.133 515.308Z" fill="#3F3D56"/>
<path d="M763.12 620.714L472.949 622.698L472.972 626.11L763.143 624.126L763.12 620.714Z" fill="#3F3D56"/>
<path d="M382.767 421.473C393.132 421.473 401.534 416.89 401.534 411.237C401.534 405.583 393.132 401 382.767 401C372.402 401 364 405.583 364 411.237C364 416.89 372.402 421.473 382.767 421.473Z" fill="#3F3D56"/>
</svg>
